# xmcd
#
# Track frame offsets: 
#        150
#        9818
#        25411
#        37037
#        54946
#        69491
#        79354
#        93273
#        102650
#        115367
#        129856
#        140402
#
# Disc length: 2013 seconds
#
# Revision: 0
# Processed by: cddbd v1.5.2PL0 Copyright (c) Steve Scherf et al.
# Submitted via: ExactAudioCopyFreeDBPlugin 1.0
#
DISCID=9a07db0c
DTITLE=Guitar Slim Green - Stone Down Blues
DYEAR=2015
DGENRE=Blues
TTITLE0=Shake 'Em Up
TTITLE1=Bumble Bee Bues
TTITLE2=Make Love All Night
TTITLE3=My Little Angel Child
TTITLE4=5th Street Alley Boogie
TTITLE5=Old Folks Blues
TTITLE6=This War Ain't Right
TTITLE7=You Make Me Feel So Good
TTITLE8=Big Fine Thing
TTITLE9=Play On Little Girl
TTITLE10=My Marie
TTITLE11=Rock The Nation
EXTD=
EXTT0=
EXTT1=
EXTT2=
EXTT3=
EXTT4=
EXTT5=
EXTT6=
EXTT7=
EXTT8=
EXTT9=
EXTT10=
EXTT11=
PLAYORDER=
